<svg xmlns="http://www.w3.org/2000/svg" version="1.1" xmlns:xlink="http://www.w3.org/1999/xlink" xmlns:svgjs="http://svgjs.dev/svgjs" width="2000" height="1500" viewBox="0 0 2000 1500"><rect width="2000" height="1500" fill="#ffffff"></rect><g transform="matrix(0.75,0,0,0.75,249.090909090909,533.0849568365302)"><svg viewBox="0 0 396 115" data-background-color="#ffffff" preserveAspectRatio="xMidYMid meet" height="580" width="2000" xmlns="http://www.w3.org/2000/svg" xmlns:xlink="http://www.w3.org/1999/xlink"><g id="tight-bounds" transform="matrix(1,0,0,1,0.2400000000000091,-0.1546437613815499)"><svg viewBox="0 0 395.52 115.3092875227631" height="115.3092875227631" width="395.52"><g><svg viewBox="0 0 395.52 115.3092875227631" height="115.3092875227631" width="395.52"><g><svg viewBox="0 0 395.52 115.3092875227631" height="115.3092875227631" width="395.52"><g id="textblocktransform"><svg viewBox="0 0 395.52 115.3092875227631" height="115.3092875227631" width="395.52" id="textblock"><g><svg viewBox="0 0 395.52 62.4618312153796" height="62.4618312153796" width="395.52"><g transform="matrix(1,0,0,1,0,0)"><svg width="395.52" viewBox="3.25 -35.5 224.76 35.5" height="62.4618312153796" data-palette-color="#2a2c35"><path d="M10.25-13.99L10.25 0 3.25 0 3.25-35.01 10.25-35.01 10.25-21 24.24-21 24.24-35.01 31.25-35.01 31.25 0 24.24 0 24.24-13.99 10.25-13.99ZM44.33-13.99L58.35-13.99 58.35-21Q58.35-22.44 57.8-23.72 57.25-25 56.3-25.95 55.34-26.9 54.06-27.45 52.78-28 51.34-28L51.34-28Q49.9-28 48.62-27.45 47.34-26.9 46.38-25.95 45.43-25 44.88-23.72 44.33-22.44 44.33-21L44.33-21 44.33-13.99ZM65.35-21L65.35 0 58.35 0 58.35-7.01 44.33-7.01 44.33 0 37.35 0 37.35-21Q37.35-23.9 38.45-26.45 39.55-29 41.44-30.91 43.33-32.81 45.88-33.91 48.44-35.01 51.34-35.01L51.34-35.01Q54.25-35.01 56.8-33.91 59.35-32.81 61.25-30.91 63.16-29 64.26-26.45 65.35-23.9 65.35-21L65.35-21ZM71.14-21L91.65-21 91.65-14.36 71.14-14.36 71.14-21ZM132.61-25L132.61 0 125.63 0 125.63-25Q125.63-25.73 125.35-26.37 125.07-27 124.59-27.48 124.11-27.95 123.48-28.22 122.84-28.49 122.11-28.49L122.11-28.49Q121.38-28.49 120.74-28.22 120.11-27.95 119.63-27.48 119.16-27 118.89-26.37 118.62-25.73 118.62-25L118.62-25 118.62 0 111.61 0 111.61-25Q111.61-25.73 111.35-26.37 111.08-27 110.6-27.48 110.12-27.95 109.49-28.22 108.85-28.49 108.12-28.49L108.12-28.49Q107.39-28.49 106.76-28.22 106.12-27.95 105.64-27.48 105.17-27 104.9-26.37 104.63-25.73 104.63-25L104.63-25 104.63 0 97.62 0 97.62-25Q97.62-27.17 98.44-29.09 99.26-31.01 100.69-32.43 102.12-33.86 104.03-34.68 105.95-35.5 108.12-35.5L108.12-35.5Q110.08-35.5 111.88-34.8 113.69-34.11 115.13-32.79L115.13-32.79Q116.57-34.11 118.36-34.8 120.16-35.5 122.11-35.5L122.11-35.5Q124.28-35.5 126.2-34.68 128.12-33.86 129.55-32.43 130.97-31.01 131.79-29.09 132.61-27.17 132.61-25L132.61-25ZM166.47-35.01L166.47-13.99Q166.47-11.08 165.37-8.53 164.27-5.98 162.37-4.09 160.46-2.2 157.91-1.1 155.36 0 152.46 0L152.46 0Q149.55 0 147-1.1 144.45-2.2 142.56-4.09 140.66-5.98 139.57-8.53 138.47-11.08 138.47-13.99L138.47-13.99 138.47-35.01 145.45-35.01 145.45-13.99Q145.45-12.55 146-11.28 146.55-10.01 147.5-9.06 148.45-8.11 149.73-7.56 151.02-7.01 152.46-7.01L152.46-7.01Q153.9-7.01 155.18-7.56 156.46-8.11 157.41-9.06 158.36-10.01 158.91-11.28 159.46-12.55 159.46-13.99L159.46-13.99 159.46-35.01 166.47-35.01ZM187.24-28L187.24 0 180.26 0 180.26-28 169.74-28 169.74-35.01 197.74-35.01 197.74-28 187.24-28ZM206.99-13.99L221.01-13.99 221.01-21Q221.01-22.44 220.46-23.72 219.91-25 218.95-25.95 218-26.9 216.72-27.45 215.44-28 214-28L214-28Q212.56-28 211.28-27.45 209.99-26.9 209.04-25.95 208.09-25 207.54-23.72 206.99-22.44 206.99-21L206.99-21 206.99-13.99ZM228.01-21L228.01 0 221.01 0 221.01-7.01 206.99-7.01 206.99 0 200.01 0 200.01-21Q200.01-23.9 201.11-26.45 202.21-29 204.1-30.91 205.99-32.81 208.54-33.91 211.09-35.01 214-35.01L214-35.01Q216.9-35.01 219.46-33.91 222.01-32.81 223.91-30.91 225.82-29 226.91-26.45 228.01-23.9 228.01-21L228.01-21Z" opacity="1" transform="matrix(1,0,0,1,0,0)" fill="#000000" class="wordmark-text-0" data-fill-palette-color="primary" id="text-0"></path></svg></g></svg></g><g transform="matrix(1,0,0,1,171.112670662461,77.20757048138155)"><svg viewBox="0 0 224.40732933753898 38.101717041381555" height="38.101717041381555" width="224.40732933753898"><g transform="matrix(1,0,0,1,0,0)"><svg width="224.40732933753898" viewBox="3 -37.65 285.62 48.5" height="38.101717041381555" data-palette-color="#2a2c35"><path d="M3-34.55L9.35-34.55 9.35-5.25 20.5-5.25 19.8 0 3 0 3-34.55ZM42.55-13.85Q42.55-13.4 42.4-11.3L42.4-11.3 28.75-11.3Q28.95-7.2 30.17-5.58 31.4-3.95 33.65-3.95L33.65-3.95Q35.2-3.95 36.45-4.48 37.7-5 39.15-6.15L39.15-6.15 41.7-2.65Q38.2 0.75 33.3 0.75L33.3 0.75Q28.1 0.75 25.32-2.85 22.55-6.45 22.55-13L22.55-13Q22.55-19.55 25.2-23.35 27.85-27.15 32.7-27.15L32.7-27.15Q37.35-27.15 39.95-23.78 42.55-20.4 42.55-13.85L42.55-13.85ZM36.55-15.3L36.55-15.65Q36.55-19.4 35.65-21.13 34.75-22.85 32.75-22.85L32.75-22.85Q30.9-22.85 29.92-21.18 28.95-19.5 28.75-15.3L28.75-15.3 36.55-15.3ZM63.75-6.4Q63.75-5.1 64.09-4.48 64.45-3.85 65.25-3.45L65.25-3.45 64 0.65Q61.95 0.4 60.72-0.45 59.5-1.3 58.9-3.05L58.9-3.05Q56.6 0.75 52.45 0.75L52.45 0.75Q49.15 0.75 47.2-1.48 45.25-3.7 45.25-7.4L45.25-7.4Q45.25-11.7 47.92-13.95 50.6-16.2 55.7-16.2L55.7-16.2 57.75-16.2 57.75-18.05Q57.75-20.55 56.87-21.58 56-22.6 54.05-22.6L54.05-22.6Q51.7-22.6 48.2-21.3L48.2-21.3 46.8-25.3Q48.8-26.2 50.95-26.68 53.1-27.15 55.05-27.15L55.05-27.15Q63.75-27.15 63.75-18.35L63.75-18.35 63.75-6.4ZM54.1-3.7Q56.5-3.7 57.75-7L57.75-7 57.75-12.55 56.3-12.55Q53.75-12.55 52.57-11.4 51.4-10.25 51.4-7.85L51.4-7.85Q51.4-5.8 52.1-4.75 52.8-3.7 54.1-3.7L54.1-3.7ZM81.19-27.1Q82.34-27.1 83.24-26.75L83.24-26.75 82.24-20.85Q81.24-21.1 80.39-21.1L80.39-21.1Q78.49-21.1 77.39-19.45 76.29-17.8 75.69-14.55L75.69-14.55 75.69 0 69.54 0 69.54-26.45 74.89-26.45 75.34-21.85Q77.19-27.1 81.19-27.1L81.19-27.1ZM98.44-27.15Q101.29-27.15 102.94-25.1 104.59-23.05 104.59-19.6L104.59-19.6 104.59 0 98.44 0 98.44-18.9Q98.44-20.8 97.92-21.63 97.39-22.45 96.39-22.45L96.39-22.45Q94.29-22.45 92.24-18.5L92.24-18.5 92.24 0 86.09 0 86.09-26.45 91.44-26.45 91.89-23Q93.24-25.1 94.77-26.13 96.29-27.15 98.44-27.15L98.44-27.15ZM117.54-34.55L139.09-34.55 138.39-29.55 131.29-29.55 131.29 0 124.94 0 124.94-29.55 117.54-29.55 117.54-34.55ZM151.38-27.15Q156.38-27.15 159.16-23.65 161.93-20.15 161.93-13.25L161.93-13.25Q161.93-6.65 159.13-2.95 156.33 0.75 151.38 0.75L151.38 0.75Q146.43 0.75 143.63-2.88 140.83-6.5 140.83-13.25L140.83-13.25Q140.83-19.95 143.63-23.55 146.43-27.15 151.38-27.15L151.38-27.15ZM151.38-22.5Q149.23-22.5 148.23-20.38 147.23-18.25 147.23-13.25L147.23-13.25Q147.23-8.2 148.23-6.08 149.23-3.95 151.38-3.95L151.38-3.95Q153.53-3.95 154.53-6.08 155.53-8.2 155.53-13.25L155.53-13.25Q155.53-18.3 154.53-20.4 153.53-22.5 151.38-22.5L151.38-22.5ZM184.43-29.85L185.98-25.1Q184.93-24.6 183.46-24.4 181.98-24.2 179.78-24.2L179.78-24.2Q181.88-23.2 182.91-21.53 183.93-19.85 183.93-17.4L183.93-17.4Q183.93-13.4 181.48-10.95 179.03-8.5 174.83-8.5L174.83-8.5Q173.58-8.5 172.28-8.9L172.28-8.9Q171.38-8.15 171.38-6.85L171.38-6.85Q171.38-5.85 171.93-5.35 172.48-4.85 173.98-4.85L173.98-4.85 176.78-4.85Q180.78-4.85 183.13-2.78 185.48-0.7 185.48 2.5L185.48 2.5Q185.48 6.3 182.56 8.58 179.63 10.85 174.23 10.85L174.23 10.85Q168.53 10.85 166.26 8.75 163.98 6.65 163.98 2.6L163.98 2.6 169.43 2.6Q169.43 4.75 170.43 5.65 171.43 6.55 174.28 6.55L174.28 6.55Q177.03 6.55 178.18 5.6 179.33 4.65 179.33 2.9L179.33 2.9Q179.33 1.2 178.38 0.4 177.43-0.4 175.43-0.4L175.43-0.4 173.53-0.4Q169.73-0.4 167.98-1.75 166.23-3.1 166.23-5.45L166.23-5.45Q166.23-6.8 166.96-8.03 167.68-9.25 168.93-10.2L168.93-10.2Q166.88-11.5 165.93-13.3 164.98-15.1 164.98-17.7L164.98-17.7Q164.98-22.05 167.58-24.58 170.18-27.1 174.58-27.1L174.58-27.1Q177.83-27.1 179.96-27.8 182.08-28.5 184.43-29.85L184.43-29.85ZM174.58-23Q172.83-23 171.93-21.75 171.03-20.5 171.03-17.8L171.03-17.8Q171.03-15.25 171.93-13.88 172.83-12.5 174.53-12.5L174.53-12.5Q176.28-12.5 177.13-13.73 177.98-14.95 177.98-17.85L177.98-17.85Q177.98-20.55 177.16-21.78 176.33-23 174.58-23L174.58-23ZM207.58-13.85Q207.58-13.4 207.43-11.3L207.43-11.3 193.78-11.3Q193.98-7.2 195.2-5.58 196.43-3.95 198.68-3.95L198.68-3.95Q200.23-3.95 201.48-4.48 202.73-5 204.18-6.15L204.18-6.15 206.73-2.65Q203.23 0.75 198.33 0.75L198.33 0.75Q193.13 0.75 190.35-2.85 187.58-6.45 187.58-13L187.58-13Q187.58-19.55 190.23-23.35 192.88-27.15 197.73-27.15L197.73-27.15Q202.38-27.15 204.98-23.78 207.58-20.4 207.58-13.85L207.58-13.85ZM201.58-15.3L201.58-15.65Q201.58-19.4 200.68-21.13 199.78-22.85 197.78-22.85L197.78-22.85Q195.93-22.85 194.95-21.18 193.98-19.5 193.78-15.3L193.78-15.3 201.58-15.3ZM223.03-5L225.18-1.2Q222.73 0.75 219.43 0.75L219.43 0.75Q215.98 0.75 214.18-1.23 212.38-3.2 212.38-6.6L212.38-6.6 212.38-22 209.28-22 209.28-26.45 212.38-26.45 212.38-32.3 218.53-33.05 218.53-26.45 223.53-26.45 222.93-22 218.53-22 218.53-6.6Q218.53-4.2 220.58-4.2L220.58-4.2Q221.23-4.2 221.73-4.38 222.23-4.55 223.03-5L223.03-5ZM240.07-27.15Q242.92-27.15 244.57-25.1 246.22-23.05 246.22-19.6L246.22-19.6 246.22 0 240.07 0 240.07-18.9Q240.07-20.8 239.55-21.63 239.02-22.45 238.02-22.45L238.02-22.45Q235.92-22.45 233.87-18.5L233.87-18.5 233.87 0 227.72 0 227.72-37 233.87-37.65 233.87-23.3Q235.12-25.25 236.6-26.2 238.07-27.15 240.07-27.15L240.07-27.15ZM270.62-13.85Q270.62-13.4 270.47-11.3L270.47-11.3 256.82-11.3Q257.02-7.2 258.25-5.58 259.47-3.95 261.72-3.95L261.72-3.95Q263.27-3.95 264.52-4.48 265.77-5 267.22-6.15L267.22-6.15 269.77-2.65Q266.27 0.75 261.37 0.75L261.37 0.75Q256.17 0.75 253.4-2.85 250.62-6.45 250.62-13L250.62-13Q250.62-19.55 253.27-23.35 255.92-27.15 260.77-27.15L260.77-27.15Q265.42-27.15 268.02-23.78 270.62-20.4 270.62-13.85L270.62-13.85ZM264.62-15.3L264.62-15.65Q264.62-19.4 263.72-21.13 262.82-22.85 260.82-22.85L260.82-22.85Q258.97-22.85 258-21.18 257.02-19.5 256.82-15.3L256.82-15.3 264.62-15.3ZM286.57-27.1Q287.72-27.1 288.62-26.75L288.62-26.75 287.62-20.85Q286.62-21.1 285.77-21.1L285.77-21.1Q283.87-21.1 282.77-19.45 281.67-17.8 281.07-14.55L281.07-14.55 281.07 0 274.92 0 274.92-26.45 280.27-26.45 280.72-21.85Q282.57-27.1 286.57-27.1L286.57-27.1Z" opacity="1" transform="matrix(1,0,0,1,0,0)" fill="#000000" class="slogan-text-1" data-fill-palette-color="secondary" id="text-1"></path></svg></g></svg></g></svg></g></svg></g></svg></g><defs></defs></svg><rect width="395.52" height="115.3092875227631" fill="none" stroke="none" visibility="hidden"></rect></g></svg></g></svg>